# xmcd
#
# Track frame offsets:
#	150
#	16223
#	32722
#	48987
#	64444
#	79459
#	95517
#	113541
#	127550
#	140758
#	157530
#	174792
#	188428
#	204199
#
# Disc length: 2942 seconds
#
# Revision: 1
# Processed by: cddbd v1.5.1PL0 Copyright (c) Steve Scherf et al.
# Submitted via: audiograbber 1.83.01
#
DISCID=a20b7c0e
DTITLE=Rosanna Rocci and Michael Morgan - Felicita Liebe hautnah
DYEAR=2004
DGENRE=Schlager-Pop
TTITLE0=Rosanna Rocci and Michael Morgan - Felicita (deutsch/ital. Version)
TTITLE1=Rosanna Rocci - Das schaffst Du nie (Tu es foutu)
TTITLE2=Michael Morgan - Komm geh mit mir nach Kanada
TTITLE3=Rosanna Rocci and Michael Morgan - Un anno d amore
TTITLE4=Rosanna Rocci  - Du passt so gut zu mir
TTITLE5=Michael Morgan - Piano Piano
TTITLE6=Rosanna Rocci and Michael Morgan - Unsichtbares Feuer
TTITLE7=Rosanna Rocci - Mit dir zusammen sein
TTITLE8=Michael Morgan - Ruby
TTITLE9=Rosanna Rocci and Michael Morgan - Io vivo per te - Ich lebe für dich
TTITLE10=Rosanna Rocci - Lailola (dt. Version)
TTITLE11=Rosanna Rocci and Michael Morgan - Ci vuole un angelo
TTITLE12=Rosanna Rocci and Michael Morgan - Ich gehör zu dir
TTITLE13=Rosanna Rocci and Michael Morgan - Ciao mio amore
EXTD=
EXTT0=
EXTT1=
EXTT2=
EXTT3=
EXTT4=
EXTT5=
EXTT6=
EXTT7=
EXTT8=
EXTT9=
EXTT10=
EXTT11=
EXTT12=
EXTT13=
PLAYORDER=
